HIERARCHY
ROOT root
{
	OFFSET 0.000000 0.000000 0.000000
	CHANNELS 6 Xposition Yposition Zposition Zrotation Yrotation Xrotation
	JOINT lhip
	{
		OFFSET 0.058581 -0.082280 -0.017664
		CHANNELS 3 Zrotation Yrotation Xrotation
		JOINT lknee
		{
			OFFSET 0.043451 -0.386469 0.008037
			CHANNELS 3 Zrotation Yrotation Xrotation
			JOINT lankle
			{
				OFFSET -0.014790 -0.426874 -0.037428
				CHANNELS 3 Zrotation Yrotation Xrotation
				JOINT ltoe
				{
					OFFSET 0.041054 -0.060286 0.122042
					CHANNELS 3 Zrotation Yrotation Xrotation
					End Site
					{
						OFFSET 0.000000 0.000000 0.000000
					}
				}
			}
		}
	}
	JOINT rhip
	{
		OFFSET -0.060310 -0.090513 -0.013543
		CHANNELS 3 Zrotation Yrotation Xrotation
		JOINT rknee
		{
			OFFSET -0.043257 -0.383688 -0.004843
			CHANNELS 3 Zrotation Yrotation Xrotation
			JOINT rankle
			{
				OFFSET 0.019056 -0.420046 -0.034562
				CHANNELS 3 Zrotation Yrotation Xrotation
				JOINT rtoe
				{
					OFFSET -0.034840 -0.062106 0.130323
					CHANNELS 3 Zrotation Yrotation Xrotation
					End Site
					{
						OFFSET 0.000000 0.000000 0.000000
					}
				}
			}
		}
	}
	JOINT lowerback
	{
		OFFSET 0.004439 0.124404 -0.038385
		CHANNELS 3 Zrotation Yrotation Xrotation
		JOINT upperback
		{
			OFFSET 0.004488 0.137956 0.026820
			CHANNELS 3 Zrotation Yrotation Xrotation
			JOINT chest
			{
				OFFSET -0.002265 0.056032 0.002855
				CHANNELS 3 Zrotation Yrotation Xrotation
				JOINT lowerneck
				{
					OFFSET -0.013390 0.211636 -0.033468
					CHANNELS 3 Zrotation Yrotation Xrotation
					JOINT upperneck
					{
						OFFSET 0.010113 0.088937 0.050410
						CHANNELS 3 Zrotation Yrotation Xrotation
						End Site
						{
							OFFSET 0.000000 0.000000 0.000000
						}
					}
				}
				JOINT lclavicle
				{
					OFFSET 0.071702 0.114000 -0.018898
					CHANNELS 3 Zrotation Yrotation Xrotation
					JOINT lshoulder
					{
						OFFSET 0.122921 0.045205 -0.019046
						CHANNELS 3 Zrotation Yrotation Xrotation
						JOINT lelbow
						{
							OFFSET 0.255332 -0.015649 -0.022946
							CHANNELS 3 Zrotation Yrotation Xrotation
							JOINT lwrist
							{
								OFFSET 0.265709 0.012698 -0.007375
								CHANNELS 3 Zrotation Yrotation Xrotation
								End Site
								{
									OFFSET 0.000000 0.000000 0.000000
								}
							}
						}
					}
				}
				JOINT rclavicle
				{
					OFFSET -0.082954 0.112472 -0.023707
					CHANNELS 3 Zrotation Yrotation Xrotation
					JOINT rshoulder
					{
						OFFSET -0.113228 0.046853 -0.008472
						CHANNELS 3 Zrotation Yrotation Xrotation
						JOINT relbow
						{
							OFFSET -0.260127 -0.014369 -0.031269
							CHANNELS 3 Zrotation Yrotation Xrotation
							JOINT rwrist
							{
								OFFSET -0.269108 0.006794 -0.006027
								CHANNELS 3 Zrotation Yrotation Xrotation
								End Site
								{
									OFFSET 0.000000 0.000000 0.000000
								}
							}
						}
					}
				}
			}
		}
	}
}
MOTION
Frames: 10
Frame Time: 0.033333
1.050361 0.729908 0.836612 -84.106720 -0.347400 111.802750 7.618261 -2.643830 -48.318545 -7.827205 10.602712 73.314929 3.045431 16.323035 -33.659895 0.000000 -0.000000 0.000000 0.056608 1.687818 -41.706763 2.151832 -7.934817 68.511816 1.103918 -16.908731 -31.900985 0.000000 -0.000000 0.000000 -1.699550 4.345493 45.057694 0.299097 -4.481431 -9.072371 2.632614 0.197343 5.687826 -3.339878 5.518427 -39.590448 9.284287 -12.500864 -17.290550 10.371581 -39.663181 -23.240585 8.247218 -31.918193 -19.695498 21.841504 -28.513328 -42.231508 14.724850 -15.710177 -10.998332 -2.834701 36.952007 -12.815247 1.278373 32.037145 -16.353254 -31.089289 37.725334 -33.705547 -20.053877 1.996011 -9.187868 
0.998726 0.728439 0.865251 -84.401254 -0.868957 111.198819 5.785416 -2.710731 -40.036873 -8.523886 8.438282 66.277866 3.330368 16.935688 -27.417777 0.000000 -0.000000 0.000000 0.768680 0.891091 -33.970898 3.937460 -5.426385 61.265187 1.567310 -18.515065 -25.984649 0.000000 -0.000000 0.000000 -2.250712 5.319174 39.174088 0.733434 -5.189508 -7.900243 3.492335 -0.088472 6.307396 -4.479024 4.578245 -38.796319 8.682479 -12.267702 -18.512787 21.106155 -36.164799 -28.919228 17.038629 -30.745930 -28.429996 28.223992 -32.805152 -47.320118 10.674591 -17.020450 -12.305699 -14.729269 34.778713 -20.091897 -5.041643 32.461713 -22.552312 -40.289232 39.593851 -41.934428 -15.872147 1.907714 -12.486940 
0.931092 0.724443 0.901399 -84.196550 -0.901525 110.948789 3.668871 0.209891 -29.854969 -7.568749 4.331980 56.518491 2.218353 13.464491 -19.082444 0.000000 -0.000000 0.000000 2.076427 -2.640855 -24.462412 2.376464 -4.329167 51.096936 3.017224 -14.792793 -17.533252 0.000000 -0.000000 0.000000 -1.451087 5.068954 32.551524 -0.281625 -5.803334 -6.058432 3.329845 0.843209 3.392633 -2.762709 0.727313 -30.503042 8.841717 -8.375123 -22.023010 30.733095 -33.139554 -34.284224 18.914752 -29.681742 -34.370894 30.565115 -36.030595 -44.401716 9.796956 -17.941191 -12.557393 -25.551674 31.341142 -25.908600 -4.218205 30.507519 -28.563064 -47.605577 41.734015 -46.422622 -5.141839 6.902848 -11.922311 
0.846705 0.721489 0.946272 -83.975072 -1.241959 110.246646 3.942265 2.379355 -15.825365 -8.643654 0.567748 39.204604 -0.644530 10.982012 -4.095603 0.000000 -0.000000 0.000000 1.196760 -7.361490 -11.202580 3.007967 -2.752497 34.108009 4.524666 -12.752723 0.414879 0.000000 -0.000000 0.000000 -1.332065 6.046341 24.888154 -0.870309 -6.854078 -5.416717 3.281412 0.926742 2.144290 -3.561648 -3.168261 -20.681162 11.772264 -4.500977 -24.294728 37.682387 -29.228657 -33.364783 18.417230 -26.717649 -34.442607 31.558324 -35.797107 -45.687961 7.773258 -20.477830 -14.952656 -33.230507 26.586690 -25.691628 -3.102377 27.050169 -30.445866 -50.929674 42.986827 -50.084694 -4.718271 8.650967 -13.940279 
0.752698 0.715964 0.997470 -83.104778 -1.459998 110.020893 4.285015 2.838658 -0.393776 -4.623697 -3.134873 15.925824 -7.394806 9.703501 19.794820 0.000000 -0.000000 0.000000 -0.167130 -12.054993 2.541057 0.425252 -2.918370 13.635051 10.859808 -10.388900 29.823827 0.000000 -0.000000 0.000000 -2.028390 5.689665 14.527193 -1.506275 -7.007818 -1.657868 3.361808 1.316377 -1.438010 -4.496337 -6.663397 -10.995764 13.599258 -1.222480 -21.474054 35.648135 -27.333885 -30.713869 19.385850 -29.260972 -32.856637 30.310533 -38.775336 -43.279499 7.484934 -23.888115 -13.535399 -34.068879 24.762331 -22.967711 -6.401608 23.059083 -29.559292 -44.132899 43.925969 -44.771507 -2.117225 9.872557 -12.602016 
0.663216 0.707764 1.037823 -82.572911 -2.085348 110.011674 2.619253 4.096009 8.353470 2.626802 -0.009362 2.153040 -8.375440 14.539820 37.578908 0.000000 -0.000000 0.000000 -1.505730 -14.369430 8.718049 -3.568045 -3.593262 7.449663 9.252246 -11.743100 43.690888 0.000000 -0.000000 0.000000 -2.872164 5.571613 5.441899 -2.281729 -6.560851 1.917913 4.079580 1.312065 -4.962484 -8.012576 -9.370710 3.006355 14.273524 2.506234 -23.965417 32.164778 -26.021297 -24.299579 17.954061 -29.948381 -29.681523 35.508836 -42.633655 -47.698073 4.206261 -21.811351 -9.735130 -35.078411 23.453435 -19.530725 -9.281189 19.552146 -28.012168 -35.732116 42.493355 -38.429126 -5.195700 8.651700 -6.725168 
0.587753 0.700245 1.072102 -81.156639 -3.003414 110.300380 2.552438 1.546963 8.176575 -0.127526 2.388822 5.473044 -6.960597 14.752730 40.432234 0.000000 -0.000000 0.000000 -2.635854 -12.100518 8.425196 -1.258652 -4.643415 13.534562 9.516449 -12.360136 45.032631 0.000000 -0.000000 0.000000 -3.763631 4.757990 0.124569 -1.593385 -6.490532 4.214474 2.962864 0.953723 -7.402767 -6.380195 -9.801303 5.373059 13.169182 1.838106 -21.545161 28.311476 -23.484617 -20.303353 18.394634 -29.037226 -25.812688 35.626874 -46.752114 -51.128586 2.275626 -20.116350 -10.894614 -30.793744 21.340743 -17.532872 -12.187976 20.983202 -27.351312 -34.779128 37.648789 -41.294477 -3.733800 8.454954 -4.106810 
0.521608 0.695403 1.102326 -78.141825 -3.910513 107.736205 2.362414 0.630948 9.303390 -0.512564 0.603680 2.889152 -5.174297 15.554441 40.696179 0.000000 -0.000000 0.000000 -3.032199 -11.412166 8.750513 0.963111 -6.293331 18.945064 8.527003 -13.136387 44.305884 0.000000 -0.000000 0.000000 -2.981075 3.649748 1.786609 -2.019783 -6.283509 2.776879 2.464412 0.837750 -6.501405 -6.712050 -12.065956 5.531160 14.222954 1.666384 -19.620722 25.893947 -25.112608 -18.909803 13.255604 -26.013628 -21.588221 36.490514 -49.872349 -51.041898 2.477368 -19.379976 -11.328836 -29.502351 23.808706 -15.945176 -9.033524 14.760199 -27.933948 -37.080242 35.543109 -47.922818 -5.612460 9.436114 -4.558600 
0.466129 0.692886 1.128781 -75.668139 -3.846698 105.533744 2.396734 2.195782 5.587925 0.804329 1.440221 2.717710 -2.486069 15.889520 37.926184 0.000000 -0.000000 0.000000 -3.139562 -12.744376 5.229514 1.462742 -7.278309 24.326725 8.203484 -11.952315 40.887264 0.000000 -0.000000 0.000000 -1.543554 2.815066 5.949609 -1.639193 -6.189437 -0.558732 2.665086 0.725938 -3.810300 -6.139598 -12.579239 2.923544 14.058514 0.895919 -19.083769 22.607857 -23.233291 -17.727018 5.897994 -24.900989 -17.937225 31.339199 -53.902637 -42.509716 0.949579 -17.151971 -12.232355 -25.323561 23.049471 -14.605771 -8.157053 14.223619 -29.572751 -34.162244 34.669193 -45.963070 -6.087494 8.993697 -3.087753 
0.419559 0.690835 1.150173 -74.995925 -3.562389 104.237699 1.295611 2.429158 -0.550597 1.015995 4.057873 2.556675 -0.714275 16.042794 34.070909 0.000000 -0.000000 0.000000 -3.995560 -13.814277 -1.682024 1.639741 -8.437502 27.584757 8.032670 -10.553702 34.080726 0.000000 -0.000000 0.000000 -0.016611 2.844007 10.059799 -1.375782 -5.813992 -2.397366 2.796438 0.279075 -1.551374 -4.667509 -12.071845 -0.070489 13.200562 0.048938 -18.413571 18.436456 -21.808683 -15.829870 -1.130034 -25.479490 -13.025842 23.064013 -54.889821 -32.085239 0.892194 -16.597578 -13.114797 -20.876111 22.236690 -12.574084 -6.720105 15.926196 -29.008316 -28.335859 32.820186 -41.227198 -7.375043 9.429384 -0.376936 
